<svg xmlns="http://www.w3.org/2000/svg" width="32.493" height="28.511" viewBox="0 0 32.493 28.511"><g transform="translate(0 1.734)"><path d="M2.706-.173,33.013-2.108A2.3,2.3,0,0,1,35.546.364a3.134,3.134,0,0,1-2.879,2.818L2.36,5.117A2.3,2.3,0,0,1-.173,2.645,3.134,3.134,0,0,1,2.706-.173Z" transform="matrix(0.766, 0.643, -0.643, 0.766, 3.665, 0)" fill="#fff"/><path d="M2.706.173,33.013,2.108a3.134,3.134,0,0,1,2.879,2.818A2.3,2.3,0,0,1,33.358,7.4L3.052,5.463A3.134,3.134,0,0,1,.173,2.645,2.3,2.3,0,0,1,2.706.173Z" transform="matrix(0.766, -0.643, 0.643, 0.766, 0, 21.212)" fill="#fff"/></g></svg>